<?xml version="1.0" encoding="utf-8"?>
<!-- Generator: Adobe Illustrator 17.1.0, SVG Export Plug-In . SVG Version: 6.00 Build 0)  -->
<!DOCTYPE svg PUBLIC "-//W3C//DTD SVG 1.1//EN" "http://www.w3.org/Graphics/SVG/1.1/DTD/svg11.dtd">
<svg version="1.1" id="Layer_1" xmlns="http://www.w3.org/2000/svg" xmlns:xlink="http://www.w3.org/1999/xlink" x="0px" y="0px"
	 viewBox="-6.5 -6.5 48 48" enable-background="new -6.5 -6.5 48 48" xml:space="preserve">
<g>
	<path fill="#5A90FE" d="M17.5-4.5C9.4-4.5,2.8,2.1,2.8,10.2c0,5.5,3,10.4,7.8,13v10.4c0,3.8,3.1,6.9,6.9,6.9c3.8,0,6.9-3.1,6.9-6.9
		V23.2c4.8-2.6,7.8-7.5,7.8-13C32.2,2.1,25.6-4.5,17.5-4.5z M11.9,24.9h11.2V27H11.9V24.9z M11.9,28.3h11.2v2.1H11.9V28.3z
		 M11.9,33.6v-2h11.2v2c0,0,0,0.1,0,0.1H11.9C11.9,33.7,11.9,33.7,11.9,33.6z M17.5,39.2c-2.6,0-4.8-1.8-5.4-4.2h10.8
		C22.3,37.4,20.1,39.2,17.5,39.2z M11.9,23.6v-0.8c0-0.2-0.1-0.5-0.4-0.6c-4.6-2.3-7.4-6.9-7.4-12c0-7.4,6-13.4,13.4-13.4
		c7.4,0,13.4,6,13.4,13.4c0,5.1-2.9,9.7-7.4,12c-0.2,0.1-0.4,0.3-0.4,0.6v0.8H11.9z"/>
</g>
<line fill="none" stroke="#5A90FE" stroke-width="1.25" stroke-linecap="round" stroke-miterlimit="10" x1="17.5" y1="23.9" x2="17.5" y2="17.5"/>
<circle fill="none" stroke="#5A90FE" stroke-width="1.25" stroke-linecap="round" stroke-miterlimit="10" cx="12.8" cy="10.1" r="2.3"/>
<circle fill="none" stroke="#5A90FE" stroke-width="1.25" stroke-linecap="round" stroke-miterlimit="10" cx="22.2" cy="10.1" r="2.3"/>
<polyline fill="none" stroke="#5A90FE" stroke-width="1.25" stroke-linecap="round" stroke-miterlimit="10" points="22.2,12.4 
	17.5,17.2 12.8,12.4 "/>
<path fill="none" stroke="#5A90FE" stroke-width="1.25" stroke-linecap="round" stroke-miterlimit="10" d="M20.6-0.3
	c3.2,0.9,5.7,3.1,6.9,6"/>
</svg>
